<svg width="153" height="40" viewBox="0 0 153 40" fill="none" xmlns="http://www.w3.org/2000/svg">
<mask id="mask0_33_25" style="mask-type:luminance" maskUnits="userSpaceOnUse" x="0" y="0" width="153" height="40">
<path d="M153 0H0V39.7156H153V0Z" fill="white"/>
</mask>
<g mask="url(#mask0_33_25)">
<path d="M57.6142 27.8429C58.1129 27.6227 58.4861 27.3214 58.737 26.94C58.9879 26.5578 59.1131 26.1284 59.1131 25.6497C59.1131 25.1709 58.9877 24.7409 58.737 24.3585C58.4859 23.9771 58.1129 23.6764 57.6142 23.4563C57.1176 23.2369 56.5101 23.1272 55.7923 23.1272C55.0745 23.1272 54.4672 23.2369 53.9696 23.4563C53.4722 23.6762 53.0979 23.9771 52.847 24.3585C52.5955 24.7409 52.471 25.1709 52.471 25.6497C52.471 26.1284 52.5957 26.5578 52.847 26.94C53.0981 27.3214 53.4722 27.6225 53.9696 27.8429C54.4674 28.062 55.0747 28.1721 55.7923 28.1721C56.5099 28.1721 57.1176 28.062 57.6142 27.8429ZM52.8585 29.3005C52.0521 28.9337 51.4426 28.4345 51.0305 27.8018C50.6171 27.1693 50.4106 26.4515 50.4106 25.6495C50.4106 24.8472 50.6171 24.1296 51.0305 23.4971C51.4426 22.8648 52.0519 22.3646 52.8585 21.9983C53.6654 21.6319 54.6432 21.4489 55.7923 21.4489C56.9417 21.4489 57.9195 21.6319 58.7257 21.9983C59.5316 22.3646 60.1405 22.8646 60.554 23.4971C60.9663 24.1294 61.173 24.8472 61.173 25.6495C61.173 26.4515 60.9663 27.1691 60.554 27.8018C60.1405 28.4343 59.5316 28.9337 58.7257 29.3005C57.9195 29.6672 56.9417 29.8497 55.7923 29.8497C54.6432 29.8497 53.6656 29.6672 52.8585 29.3005Z" fill="#070510"/>
<path d="M62.6772 29.6998V21.5993H64.6561V26.3435C64.6561 26.7991 64.6305 27.1849 64.5809 27.5016C64.5305 27.817 64.4553 28.1418 64.355 28.4729H64.5515L68.8798 21.5993H72.0848V29.6998H70.106V24.9559C70.106 24.5004 70.131 24.115 70.1815 23.7982C70.2309 23.4813 70.3065 23.158 70.4072 22.8266H70.2099L65.8828 29.6998H62.6772Z" fill="#070510"/>
<path d="M81.1682 24.6547V21.5996H83.2281V29.6992H81.1682V26.3672H75.9962V29.6992H73.936V21.5996H75.9962V24.6547H81.1682Z" fill="#070510"/>
<path d="M89.6856 29.6998H87.6259V23.3123H84.2935V21.5993H93.0183V23.3123H89.6856V29.6998Z" fill="#070510"/>
<path d="M41.8469 21.5993V23.3054L39.7955 21.5993H39.7886V29.6998H41.8479V23.3123H46.8472V29.6998H48.9069V21.5993H41.8469Z" fill="#070510"/>
<path d="M46.3153 15.8577C47.2947 15.8577 48.0267 15.6747 48.5083 15.3083C48.9906 14.9416 49.2314 14.4541 49.2314 13.844C49.2314 13.2353 48.9904 12.7472 48.5083 12.3809C48.0267 12.0141 47.2947 11.8309 46.3153 11.8309H46.2576V15.8577H46.3153ZM42.1379 15.3085C42.6238 15.6749 43.3567 15.8579 44.3367 15.8579H44.3942V11.8309H44.3367C43.3567 11.8309 42.6238 12.0143 42.1379 12.3809C41.6522 12.7472 41.4088 13.2353 41.4088 13.844C41.4088 14.4543 41.652 14.9418 42.1379 15.3085ZM50.7358 15.7078C50.3812 16.2478 49.8358 16.6717 49.0985 16.9803C48.3621 17.2895 47.4448 17.4474 46.3504 17.4551V18.2998H44.2908V17.4551C43.1954 17.4476 42.2803 17.2895 41.548 16.9803C40.815 16.6717 40.2711 16.2478 39.9167 15.7078C39.5613 15.1675 39.3838 14.5467 39.3838 13.8442C39.3838 13.1425 39.5613 12.5221 39.9167 11.9814C40.271 11.4417 40.8148 11.0171 41.548 10.7087C42.2803 10.4005 43.1954 10.2418 44.2908 10.2341V9.38935H46.3504V10.2341C47.445 10.2418 48.3623 10.4005 49.0985 10.7087C49.8358 11.0171 50.3812 11.4417 50.7358 11.9814C51.0902 12.5221 51.2685 13.1425 51.2685 13.8442C51.2685 14.5467 51.0902 15.1677 50.7358 15.7078Z" fill="#070510"/>
<path d="M51.5566 17.8832V16.1595C51.7429 16.2216 51.9194 16.2515 52.0894 16.2515C52.4595 16.2515 52.7332 16.1634 52.9107 15.9865C53.0882 15.8082 53.204 15.4998 53.2582 15.0599L53.8716 9.79484H61.8335V17.8949H59.7732V11.5075H55.6771L55.2487 15.407C55.1481 16.2864 54.8818 16.9463 54.4504 17.3854C54.0184 17.8253 53.3976 18.0453 52.5874 18.0453C52.1935 18.0453 51.8502 17.9907 51.5566 17.8832Z" fill="#070510"/>
<path d="M63.6841 17.8949V9.79484H65.6629V14.5397C65.6629 14.9946 65.6377 15.3806 65.5877 15.6964C65.5373 16.0131 65.4622 16.3366 65.3614 16.668H65.5584L69.8865 9.79484H73.0924V17.8949H71.1126V13.1501C71.1126 12.6951 71.138 12.3101 71.1886 11.9934C71.2385 11.6765 71.3139 11.3534 71.4135 11.0218H71.2179L66.8894 17.8949H63.6841Z" fill="#070510"/>
<path d="M96.8833 17.895V9.79489H98.8617V14.5397C98.8617 14.9947 98.8365 15.3807 98.7869 15.6964C98.7358 16.0132 98.6614 16.3366 98.561 16.6681H98.7574L103.086 9.79489H106.291V17.895H104.312V13.1502C104.312 12.6952 104.337 12.3102 104.387 11.9935C104.438 11.6765 104.513 11.3534 104.612 11.0218H104.415L100.088 17.895H96.8833Z" fill="#070510"/>
<path d="M115.376 12.8498V9.79484H117.434V17.8949H115.376V14.5619H110.203V17.8949H108.143V9.79484H110.203V12.8498H115.376Z" fill="#070510"/>
<path d="M74.9429 17.895H77.002V11.5071L74.9429 9.79489V17.895Z" fill="#070510"/>
<path d="M77.0024 9.79489V11.5075H82.0019V17.895H84.0617V9.79489H77.0024Z" fill="#070510"/>
<path d="M87.9522 9.79489V11.5075L85.9131 9.81194V17.895H87.9726V11.5075H92.9713V17.895H95.0314V9.79489H87.9522Z" fill="#070510"/>
<path d="M121.314 9.79489V11.5075L119.286 9.82146V17.895H121.346V11.5075H126.669V9.79489H121.314Z" fill="#070510"/>
<path d="M24.7893 17.2992V22.2889H29.7649V24.7951H24.7926V22.2998L19.812 17.2992H19.8033V17.2908H14.8129V14.7956H24.7926V9.80559H9.82275V29.7849L14.8129 24.7951V22.2806H19.8033V39.7894L24.7926 34.7949V29.7944H29.7649L34.7557 24.7951V17.2992H24.7893Z" fill="#070510"/>
</g>
</svg>
