<svg width="65" height="49" viewBox="0 0 65 49" fill="none" xmlns="http://www.w3.org/2000/svg">
<g clip-path="url(#clip0_33_658)">
<path d="M24.5756 3.77531V0.878228H31.179V19.2431L39.4515 9.7178H47.5724L38.78 19.4955L47.8007 34.9421H39.9081L33.9493 24.1223L31.179 26.9789V34.9421H24.5756V33.1892C24.1439 33.378 23.7756 33.6881 23.3631 33.9154C18.3923 36.6468 9.55196 36.5486 4.89389 33.1757C2.0814 31.1396 0.690502 27.969 0.66748 24.5018H7.42245C7.47616 27.474 9.50016 29.2673 12.2781 29.799C15.0561 30.3306 21.4005 30.0841 21.765 26.1391C22.0393 23.1688 19.7391 22.458 17.3813 21.78C14.4268 20.9305 11.3246 20.3912 8.37593 19.5417C4.20899 18.3436 1.479 15.9415 1.19506 11.359C0.757649 4.28962 5.97399 0.360067 12.5429 0.0364564C16.894 -0.177358 21.4638 0.454453 24.5756 3.77339V3.77531ZM24.5756 11.0142H20.7425C20.5314 10.521 20.5161 9.9085 20.3281 9.373C19.0292 5.65341 13.5424 5.13332 10.3846 6.40464C7.02532 7.75687 6.66081 12.0004 10.2676 13.2255C13.2872 14.2522 16.8959 14.7588 20.023 15.6237C21.5962 16.0571 23.1252 16.5926 24.5756 17.3381V11.0122V11.0142Z" fill="white"/>
</g>
<defs>
<clipPath id="clip0_33_658">
<rect width="65" height="49" fill="white"/>
</clipPath>
</defs>
</svg>
