<svg width="32" height="32" viewBox="0 0 32 32" fill="none" xmlns="http://www.w3.org/2000/svg">
<path d="M16.0012 1.28027C24.1312 1.28027 30.7212 7.87035 30.7212 16.0003C30.7212 24.1302 24.1312 30.7203 16.0012 30.7203C7.87133 30.7203 1.28125 24.1302 1.28125 16.0003C1.28125 7.87035 7.87133 1.28027 16.0012 1.28027ZM21.079 22.0003C21.3497 21.1696 22.6182 12.8905 22.775 11.2592C22.8224 10.7651 22.6662 10.4368 22.3603 10.2902C21.9904 10.1123 21.4425 10.2012 20.807 10.4304C19.9353 10.7446 8.79165 15.4761 8.14781 15.75C7.53725 16.0092 6.95997 16.2921 6.95997 16.7017C6.95997 16.9897 7.13085 17.1516 7.60189 17.32C8.09213 17.4947 9.32669 17.8691 10.0556 18.07C10.7577 18.264 11.5571 18.0956 12.0051 17.8172C12.48 17.5222 17.9603 13.855 18.3539 13.5337C18.7468 13.2124 19.0604 13.624 18.7392 13.9459C18.4179 14.2672 14.656 17.9184 14.16 18.424C13.5577 19.0377 13.9853 19.6739 14.3891 19.9286C14.8505 20.2192 18.1689 22.4451 18.6688 22.8022C19.1686 23.1593 19.6755 23.3212 20.1395 23.3212C20.6035 23.3212 20.848 22.71 21.079 22.0003Z" fill="white"/>
</svg>
