<svg width="188" height="188" viewBox="0 0 188 188" fill="none" xmlns="http://www.w3.org/2000/svg">
<path d="M35.2847 10.5625H20.5625C15.0396 10.5625 10.5625 15.0397 10.5625 20.5625L10.5625 35.2847" stroke="white"/>
<path d="M152.715 177.437L167.438 177.437C172.96 177.437 177.438 172.96 177.438 167.438L177.438 152.715" stroke="white"/>
<path d="M177.437 35.2847L177.437 20.5625C177.437 15.0397 172.96 10.5625 167.437 10.5625L152.715 10.5625" stroke="white"/>
<path d="M10.5625 152.715L10.5625 167.438C10.5625 172.96 15.0397 177.438 20.5625 177.438L35.2847 177.438" stroke="white"/>
<path d="M49.141 72.04V88H47.293V80.584L47.317 73.624H37.957V88H36.229V72.04H49.141ZM50.8975 82.096C50.8975 80.736 51.0175 79.672 51.2575 78.904C51.4975 78.12 51.9535 77.544 52.6255 77.176C53.3135 76.808 54.3215 76.624 55.6495 76.624C57.0575 76.624 58.1295 76.784 58.8655 77.104C59.6015 77.408 60.1055 77.936 60.3775 78.688C60.6495 79.44 60.7855 80.544 60.7855 82C60.7855 83.488 60.7055 84.648 60.5455 85.48C60.4015 86.296 59.9935 86.952 59.3215 87.448C58.6495 87.928 57.5935 88.168 56.1535 88.168C54.7775 88.168 53.7135 88.04 52.9615 87.784C52.2255 87.528 51.6975 87.04 51.3775 86.32C51.0575 85.6 50.8975 84.544 50.8975 83.152V82.096ZM52.5775 83.032C52.5775 84.76 52.8175 85.864 53.2975 86.344C53.6015 86.664 54.1935 86.824 55.0735 86.824H55.8895C56.5935 86.824 57.1535 86.768 57.5695 86.656C58.0015 86.528 58.3295 86.288 58.5535 85.936C58.7935 85.584 58.9375 85.072 58.9855 84.4C59.0175 83.824 59.0335 82.976 59.0335 81.856C59.0335 80.768 58.9855 79.976 58.8895 79.48C58.8095 78.984 58.5695 78.616 58.1695 78.376C57.7695 78.12 57.1295 77.992 56.2495 77.992H55.8895C54.8815 77.992 54.1535 78.088 53.7055 78.28C53.2575 78.456 52.9535 78.8 52.7935 79.312C52.6495 79.808 52.5775 80.616 52.5775 81.736V83.032ZM70.3264 83.92H71.9824C71.9824 85.072 71.8304 85.952 71.5264 86.56C71.2224 87.152 70.7264 87.56 70.0384 87.784C69.3664 87.992 68.4464 88.096 67.2784 88.096C66.1104 88.096 65.1904 87.976 64.5184 87.736C63.8464 87.496 63.3584 87.144 63.0544 86.68C62.7664 86.2 62.5744 85.616 62.4784 84.928C62.3984 84.224 62.3584 83.264 62.3584 82.048C62.3584 80.72 62.4944 79.68 62.7664 78.928C63.0384 78.176 63.5344 77.616 64.2544 77.248C64.9744 76.88 65.9824 76.696 67.2784 76.696C68.7184 76.696 69.8224 76.928 70.5904 77.392C71.3744 77.856 71.7664 78.752 71.7664 80.08V80.464H70.1584C70.1584 79.776 70.0704 79.272 69.8944 78.952C69.7184 78.616 69.4384 78.384 69.0544 78.256C68.6704 78.128 68.1344 78.064 67.4464 78.064C66.4384 78.064 65.7104 78.16 65.2624 78.352C64.8144 78.528 64.5024 78.88 64.3264 79.408C64.1664 79.92 64.0864 80.736 64.0864 81.856V82.96C64.0864 83.952 64.1424 84.704 64.2544 85.216C64.3664 85.712 64.6384 86.096 65.0704 86.368C65.5184 86.624 66.2144 86.752 67.1584 86.752C68.0544 86.752 68.7104 86.696 69.1264 86.584C69.5584 86.456 69.8624 86.192 70.0384 85.792C70.2304 85.376 70.3264 84.752 70.3264 83.92ZM80.0918 86.824L84.1238 76.816H86.6918V87.952H85.1318V78.28L81.2198 87.952H79.0358L75.1238 78.28V87.952H73.6118V76.816H76.0598L80.0918 86.824ZM88.4443 82.096C88.4443 80.736 88.5643 79.672 88.8043 78.904C89.0443 78.12 89.5003 77.544 90.1723 77.176C90.8603 76.808 91.8683 76.624 93.1963 76.624C94.6043 76.624 95.6763 76.784 96.4123 77.104C97.1483 77.408 97.6523 77.936 97.9243 78.688C98.1963 79.44 98.3323 80.544 98.3323 82C98.3323 83.488 98.2523 84.648 98.0923 85.48C97.9483 86.296 97.5403 86.952 96.8683 87.448C96.1963 87.928 95.1403 88.168 93.7003 88.168C92.3243 88.168 91.2603 88.04 90.5083 87.784C89.7723 87.528 89.2443 87.04 88.9243 86.32C88.6043 85.6 88.4443 84.544 88.4443 83.152V82.096ZM90.1243 83.032C90.1243 84.76 90.3643 85.864 90.8443 86.344C91.1483 86.664 91.7403 86.824 92.6203 86.824H93.4363C94.1403 86.824 94.7003 86.768 95.1163 86.656C95.5483 86.528 95.8763 86.288 96.1003 85.936C96.3403 85.584 96.4843 85.072 96.5323 84.4C96.5643 83.824 96.5803 82.976 96.5803 81.856C96.5803 80.768 96.5323 79.976 96.4363 79.48C96.3563 78.984 96.1163 78.616 95.7163 78.376C95.3163 78.12 94.6763 77.992 93.7963 77.992H93.4363C92.4283 77.992 91.7003 78.088 91.2523 78.28C90.8043 78.456 90.5003 78.8 90.3403 79.312C90.1963 79.808 90.1243 80.616 90.1243 81.736V83.032ZM108.857 78.184H104.993V88H103.289V78.184H99.4253V76.816H108.857V78.184ZM110.104 76.84H111.688L111.664 78.28C112.048 77.672 112.528 77.256 113.104 77.032C113.696 76.808 114.392 76.696 115.192 76.696C116.488 76.696 117.456 76.912 118.096 77.344C118.752 77.76 119.176 78.368 119.368 79.168C119.576 79.952 119.68 81.016 119.68 82.36C119.68 83.352 119.632 84.176 119.536 84.832C119.456 85.488 119.272 86.064 118.984 86.56C118.712 87.056 118.28 87.44 117.688 87.712C117.096 87.984 116.328 88.12 115.384 88.12C114.552 88.12 113.832 88.024 113.224 87.832C112.616 87.624 112.104 87.232 111.688 86.656V92.8H110.104V76.84ZM111.712 82.048V82.912C111.712 83.776 111.784 84.48 111.928 85.024C112.072 85.568 112.368 85.992 112.816 86.296C113.28 86.6 113.952 86.752 114.832 86.752C115.776 86.752 116.472 86.608 116.92 86.32C117.368 86.032 117.648 85.624 117.76 85.096C117.888 84.568 117.952 83.8 117.952 82.792V82.144C117.952 81.072 117.896 80.272 117.784 79.744C117.688 79.2 117.416 78.784 116.968 78.496C116.536 78.208 115.848 78.064 114.904 78.064C113.96 78.064 113.256 78.2 112.792 78.472C112.344 78.728 112.048 79.128 111.904 79.672C111.776 80.2 111.712 80.992 111.712 82.048ZM128.781 84.592H130.533C130.533 85.648 130.341 86.432 129.957 86.944C129.573 87.44 129.053 87.76 128.397 87.904C127.741 88.048 126.861 88.12 125.757 88.12C124.717 88.12 123.869 88.032 123.213 87.856C122.557 87.664 122.053 87.36 121.701 86.944C121.349 86.528 121.101 85.976 120.957 85.288C120.829 84.6 120.765 83.728 120.765 82.672C120.765 81.184 120.853 80.032 121.029 79.216C121.221 78.4 121.661 77.776 122.349 77.344C123.053 76.896 124.101 76.672 125.493 76.672C126.885 76.672 127.941 76.816 128.661 77.104C129.381 77.392 129.869 77.896 130.125 78.616C130.381 79.32 130.517 80.4 130.533 81.856V82.696H122.493C122.493 83.72 122.541 84.504 122.637 85.048C122.733 85.576 122.997 86.008 123.429 86.344C123.861 86.664 124.549 86.824 125.493 86.824H125.949C126.877 86.824 127.581 86.712 128.061 86.488C128.541 86.264 128.781 85.752 128.781 84.952V84.592ZM128.829 81.4C128.829 80.392 128.765 79.656 128.637 79.192C128.509 78.728 128.213 78.408 127.749 78.232C127.301 78.04 126.589 77.944 125.613 77.944C124.765 77.944 124.117 78.048 123.669 78.256C123.237 78.464 122.933 78.816 122.757 79.312C122.581 79.792 122.493 80.488 122.493 81.4H128.829ZM141.037 78.184H137.173V88H135.469V78.184H131.605V76.816H141.037V78.184ZM142.284 88V76.84H143.916V80.872H148.188C149.228 80.936 150.028 81.24 150.588 81.784C151.164 82.312 151.46 83.072 151.476 84.064C151.476 85.104 151.372 85.896 151.164 86.44C150.972 86.984 150.604 87.384 150.06 87.64C149.532 87.88 148.764 88 147.756 88H142.284ZM146.508 86.704H146.892C146.988 86.704 147.14 86.712 147.348 86.728C147.556 86.744 147.716 86.752 147.828 86.752C148.5 86.752 148.988 86.632 149.292 86.392C149.692 86.168 149.892 85.568 149.892 84.592V84.376C149.892 83.672 149.7 83.16 149.316 82.84C148.932 82.52 148.204 82.36 147.132 82.36H143.892V86.704H146.508ZM56.144 102.4C56.8 101.264 57.832 100.696 59.24 100.696C60.344 100.696 61.176 100.912 61.736 101.344C62.312 101.76 62.688 102.36 62.864 103.144C63.056 103.928 63.152 105 63.152 106.36C63.152 107.656 63.064 108.712 62.888 109.528C62.712 110.344 62.352 110.984 61.808 111.448C61.264 111.896 60.448 112.12 59.36 112.12C57.776 112.12 56.72 111.632 56.192 110.656V116.8L54.464 116.728V110.704C54.144 111.296 53.72 111.68 53.192 111.856C52.664 112.032 52.016 112.12 51.248 112.12C50.176 112.12 49.376 111.888 48.848 111.424C48.32 110.96 47.968 110.328 47.792 109.528C47.632 108.712 47.552 107.656 47.552 106.36C47.552 105.016 47.632 103.952 47.792 103.168C47.968 102.368 48.344 101.76 48.92 101.344C49.496 100.912 50.336 100.696 51.44 100.696C52.848 100.696 53.872 101.264 54.512 102.4V100.84H56.144V102.4ZM54.44 106.912V106.048C54.44 104.592 54.24 103.568 53.84 102.976C53.456 102.368 52.752 102.064 51.728 102.064C50.992 102.064 50.448 102.208 50.096 102.496C49.76 102.768 49.552 103.16 49.472 103.672C49.392 104.184 49.352 104.96 49.352 106V106.792C49.352 108.184 49.504 109.176 49.808 109.768C50.128 110.36 50.776 110.688 51.752 110.752C52.504 110.752 53.08 110.6 53.48 110.296C53.88 109.992 54.136 109.568 54.248 109.024C54.376 108.48 54.44 107.776 54.44 106.912ZM56.264 106.912C56.264 107.584 56.288 108.144 56.336 108.592C56.384 109.024 56.496 109.4 56.672 109.72C56.848 110.04 57.112 110.296 57.464 110.488C57.832 110.664 58.304 110.752 58.88 110.752C59.6 110.704 60.128 110.544 60.464 110.272C60.8 109.984 61.024 109.568 61.136 109.024C61.248 108.48 61.304 107.736 61.304 106.792V106C61.304 104.96 61.264 104.184 61.184 103.672C61.12 103.16 60.912 102.768 60.56 102.496C60.224 102.208 59.672 102.064 58.904 102.064C58.216 102.064 57.68 102.2 57.296 102.472C56.912 102.744 56.64 103.168 56.48 103.744C56.336 104.304 56.264 105.072 56.264 106.048V106.912ZM64.6235 100.84H66.2075L66.1835 102.28C66.5675 101.672 67.0475 101.256 67.6235 101.032C68.2155 100.808 68.9115 100.696 69.7115 100.696C71.0075 100.696 71.9755 100.912 72.6155 101.344C73.2715 101.76 73.6955 102.368 73.8875 103.168C74.0955 103.952 74.1995 105.016 74.1995 106.36C74.1995 107.352 74.1515 108.176 74.0555 108.832C73.9755 109.488 73.7915 110.064 73.5035 110.56C73.2315 111.056 72.7995 111.44 72.2075 111.712C71.6155 111.984 70.8475 112.12 69.9035 112.12C69.0715 112.12 68.3515 112.024 67.7435 111.832C67.1355 111.624 66.6235 111.232 66.2075 110.656V116.8H64.6235V100.84ZM66.2315 106.048V106.912C66.2315 107.776 66.3035 108.48 66.4475 109.024C66.5915 109.568 66.8875 109.992 67.3355 110.296C67.7995 110.6 68.4715 110.752 69.3515 110.752C70.2955 110.752 70.9915 110.608 71.4395 110.32C71.8875 110.032 72.1675 109.624 72.2795 109.096C72.4075 108.568 72.4715 107.8 72.4715 106.792V106.144C72.4715 105.072 72.4155 104.272 72.3035 103.744C72.2075 103.2 71.9355 102.784 71.4875 102.496C71.0555 102.208 70.3675 102.064 69.4235 102.064C68.4795 102.064 67.7755 102.2 67.3115 102.472C66.8635 102.728 66.5675 103.128 66.4235 103.672C66.2955 104.2 66.2315 104.992 66.2315 106.048ZM77.3242 104.056H75.6202C75.6202 102.664 75.9722 101.776 76.6762 101.392C77.3802 101.008 78.5002 100.816 80.0362 100.816C81.1722 100.816 82.0762 100.904 82.7482 101.08C83.4362 101.256 83.9562 101.624 84.3082 102.184C84.6762 102.744 84.8602 103.592 84.8602 104.728V112H83.3002L83.3722 110.824C82.9722 111.384 82.4682 111.752 81.8602 111.928C81.2522 112.088 80.5002 112.168 79.6042 112.168C78.6122 112.168 77.8042 112.088 77.1802 111.928C76.5562 111.752 76.0762 111.408 75.7402 110.896C75.4042 110.368 75.2362 109.616 75.2362 108.64C75.2362 107.696 75.4122 106.984 75.7642 106.504C76.1162 106.008 76.5962 105.68 77.2042 105.52C77.8282 105.36 78.6202 105.28 79.5802 105.28C80.4602 105.28 81.1882 105.344 81.7642 105.472C82.3562 105.6 82.8202 105.912 83.1562 106.408V105.112C83.1562 104.152 83.0762 103.464 82.9162 103.048C82.7562 102.616 82.4602 102.336 82.0282 102.208C81.5962 102.064 80.8922 101.992 79.9162 101.992C78.8762 101.992 78.1642 102.144 77.7802 102.448C77.4442 102.672 77.2762 103.072 77.2762 103.648C77.2762 103.712 77.2842 103.784 77.3002 103.864C77.3162 103.928 77.3242 103.992 77.3242 104.056ZM76.9642 108.448C76.9642 109.408 77.1562 110.048 77.5402 110.368C77.9242 110.672 78.5882 110.824 79.5322 110.824C80.2522 110.824 80.8602 110.792 81.3562 110.728C81.8682 110.648 82.3082 110.464 82.6762 110.176C83.0602 109.872 83.2522 109.384 83.2522 108.712C83.2522 107.8 82.9962 107.216 82.4842 106.96C81.9722 106.704 81.1962 106.576 80.1562 106.576H79.7242C78.5242 106.576 77.7322 106.744 77.3482 107.08C77.0922 107.288 76.9642 107.744 76.9642 108.448ZM94.4542 105.232V100.816H96.1102V112H94.4302V106.696H88.3342V112H86.6782V100.84H88.3342V105.232H94.4542ZM99.0305 104.584V100.84H97.3265V105.184C97.3905 106.272 97.6545 106.984 98.1185 107.32C98.5825 107.656 99.2545 107.856 100.135 107.92L99.0305 104.584ZM99.0305 104.584C99.0305 104.648 99.0225 104.744 99.0065 104.872C99.0065 105 99.0065 105.08 99.0065 105.112C99.0065 105.528 99.1025 105.84 99.2945 106.048C99.4545 106.192 99.6465 106.272 99.8705 106.288C99.9025 106.288 99.9665 106.304 100.062 106.336C100.159 106.352 100.223 106.36 100.255 106.36C100.319 106.36 100.391 106.352 100.471 106.336C100.567 106.304 100.647 106.288 100.711 106.288L99.0305 104.584ZM100.711 106.288H104.887V100.84H106.591V112H104.887V107.92H100.135L100.711 106.288ZM108.331 101.152C108.331 101.088 108.323 101.008 108.307 100.912C108.291 100.816 108.283 100.736 108.283 100.672C108.283 99.984 108.435 99.392 108.739 98.896C109.043 98.4 109.515 98.008 110.155 97.72C110.795 97.432 111.611 97.288 112.603 97.288H113.059C113.155 97.288 113.291 97.296 113.467 97.312C113.659 97.328 113.795 97.336 113.875 97.336C114.627 97.336 115.171 97.24 115.507 97.048C115.843 96.84 116.011 96.52 116.011 96.088L117.811 96.04C117.811 96.36 117.803 96.624 117.787 96.832C117.787 97.04 117.747 97.24 117.667 97.432C117.587 97.624 117.443 97.8 117.235 97.96C116.739 98.44 115.683 98.68 114.067 98.68C113.971 98.68 113.827 98.672 113.635 98.656C113.459 98.64 113.323 98.632 113.227 98.632C112.235 98.632 111.467 98.776 110.923 99.064C110.395 99.336 110.131 99.904 110.131 100.768V101.296C110.979 100.848 111.963 100.624 113.083 100.624C114.491 100.624 115.563 100.784 116.299 101.104C117.035 101.408 117.539 101.936 117.811 102.688C118.083 103.44 118.219 104.544 118.219 106C118.219 107.488 118.139 108.648 117.979 109.48C117.835 110.296 117.427 110.952 116.755 111.448C116.083 111.928 115.027 112.168 113.587 112.168C112.211 112.168 111.147 112.04 110.395 111.784C109.659 111.528 109.131 111.04 108.811 110.32C108.491 109.6 108.331 108.544 108.331 107.152V101.152ZM110.011 107.032C110.011 108.76 110.251 109.864 110.731 110.344C111.035 110.664 111.627 110.824 112.507 110.824H113.323C114.027 110.824 114.587 110.768 115.003 110.656C115.435 110.528 115.763 110.288 115.987 109.936C116.227 109.584 116.371 109.072 116.419 108.4C116.451 107.824 116.467 106.976 116.467 105.856C116.467 104.768 116.419 103.976 116.323 103.48C116.243 102.984 116.003 102.616 115.603 102.376C115.203 102.12 114.563 101.992 113.683 101.992H113.323C112.315 101.992 111.587 102.088 111.139 102.28C110.691 102.456 110.387 102.8 110.227 103.312C110.083 103.808 110.011 104.616 110.011 105.736V107.032ZM128.912 100.84L125.768 112.624C125.512 113.712 125.064 114.72 124.424 115.648C123.784 116.576 123.016 117.04 122.12 117.04C121.864 117.04 121.56 116.992 121.208 116.896V115.552C121.24 115.552 121.312 115.56 121.424 115.576C121.536 115.592 121.608 115.6 121.64 115.6C122.168 115.6 122.592 115.416 122.912 115.048C123.248 114.696 123.48 114.296 123.608 113.848C123.752 113.416 123.92 112.8 124.112 112H123.536L119.504 100.84H121.208L124.712 110.752L127.208 100.84H128.912ZM131.835 100.84V105.352H132.531L136.539 100.84H138.603L133.827 105.976L139.443 112H137.235L132.531 106.624H131.835V112H130.155L130.131 100.84H131.835Z" fill="white"/>
</svg>
