<svg width="32" height="32" viewBox="0 0 32 32" fill="none" xmlns="http://www.w3.org/2000/svg">
<path d="M16.0013 1.28027C7.88486 1.28027 1.28134 7.88379 1.28134 16.0003C1.28134 18.5347 1.93606 21.0268 3.17766 23.2259L1.30502 29.9075C1.24358 30.127 1.30311 30.3625 1.46183 30.5257C1.58407 30.6518 1.75046 30.7203 1.92134 30.7203C1.97254 30.7203 2.02438 30.7139 2.07494 30.7017L9.04838 28.9744C11.1777 30.1174 13.5757 30.7203 16.0013 30.7203C24.1178 30.7203 30.7213 24.1168 30.7213 16.0003C30.7213 7.88379 24.1178 1.28027 16.0013 1.28027ZM23.4061 21.1945C23.0913 22.0662 21.5809 22.8617 20.8551 22.9686C20.2036 23.064 19.3793 23.1049 18.4743 22.8208C17.9258 22.648 17.2218 22.4188 16.3201 22.0342C12.5293 20.4176 10.0538 16.6486 9.86439 16.3996C9.67558 16.1507 8.32134 14.3766 8.32134 12.5404C8.32134 10.7043 9.29735 9.80123 9.64423 9.42747C9.99111 9.05371 10.4001 8.96027 10.6522 8.96027C10.9044 8.96027 11.1559 8.96347 11.3767 8.97371C11.609 8.98523 11.9207 8.88603 12.2273 9.61435C12.5421 10.3619 13.298 12.198 13.3914 12.3856C13.4861 12.5724 13.5489 12.7907 13.4234 13.0396C13.298 13.2886 13.2353 13.4441 13.0458 13.6624C12.8564 13.8806 12.649 14.1488 12.4788 14.3164C12.2893 14.5027 12.0929 14.7043 12.313 15.078C12.5332 15.4518 13.2916 16.6736 14.4154 17.663C15.8586 18.934 17.0765 19.3283 17.4541 19.5152C17.8317 19.702 18.0525 19.6707 18.2727 19.4217C18.4929 19.1721 19.2173 18.3318 19.4689 17.9587C19.7204 17.5856 19.9725 17.647 20.3194 17.7718C20.6663 17.896 22.5242 18.7984 22.9018 18.9852C23.2794 19.1721 23.5316 19.2656 23.6263 19.4211C23.721 19.576 23.721 20.3235 23.4061 21.1945Z" fill="white"/>
</svg>
